4D 54 68 64 00 00 00 06 00 01 00 01 00 E0 4D 54 72 6B 00 00 02 90 80 00 91 48 00 80 00 91 47 00 80 00 91 46 00 80 00 91 45 00 80 00 91 44 00 80 00 91 43 00 80 00 91 42 00 80 00 91 41 00 80 00 91 40 00 80 00 91 3F 00 80 00 91 3E 00 80 00 91 3D 00 80 00 91 3C 00 80 48 91 48 00 80 00 91 47 00 80 00 91 46 00 80 00 91 45 00 80 00 91 44 00 80 00 91 43 00 80 00 91 42 00 80 00 91 41 00 80 00 91 40 00 80 00 91 3F 00 80 00 91 3E 00 80 00 91 3D 00 80 00 91 3C 00 80 48 91 48 00 80 00 91 47 00 80 00 91 46 00 80 00 91 45 00 80 00 91 44 00 80 00 91 43 00 80 00 91 42 00 80 00 91 41 00 80 00 91 40 00 80 00 91 3F 00 80 00 91 3E 00 80 00 91 3D 00 80 00 91 3C 00 80 48 91 48 00 80 00 91 47 00 80 00 91 46 00 80 00 91 45 00 80 00 91 44 00 80 00 91 43 00 80 00 91 42 00 80 00 91 41 00 80 00 91 40 00 80 00 91 3F 00 80 00 91 3E 00 80 00 91 3D 00 80 00 91 3C 00 80 48 91 48 00 80 00 91 47 00 80 00 91 46 00 80 00 91 45 00 80 00 91 44 00 80 00 91 43 00 80 00 91 42 00 80 00 91 41 00 80 00 91 40 00 80 00 91 3F 00 80 00 91 3E 00 80 00 91 3D 00 80 00 91 3C 00 80 48 91 48 00 80 00 91 47 00 80 00 91 46 00 80 00 91 45 00 80 00 91 44 00 80 00 91 43 00 80 00 91 42 00 80 00 91 41 00 80 00 91 40 00 80 00 91 3F 00 80 00 91 3E 00 80 00 91 3D 00 80 00 91 3C 00 80 48 91 48 00 80 00 91 47 00 80 00 91 46 00 80 00 91 45 00 80 00 91 44 00 80 00 91 43 00 80 00 91 42 00 80 00 91 41 00 80 00 91 40 00 80 00 91 3F 00 80 00 91 3E 00 80 00 91 3D 00 80 00 91 3C 00 80 48 91 48 00 80 00 91 47 00 80 00 91 46 00 80 00 91 45 00 80 00 91 44 00 80 00 91 43 00 80 00 91 42 00 80 00 91 41 00 80 00 91 40 00 80 00 91 3F 00 80 00 91 3E 00 80 00 91 3D 00 80 00 91 3C 00 80 48 91 48 00 80 00 91 47 00 80 00 91 46 00 80 00 91 45 00 80 00 91 44 00 80 00 91 43 00 80 00 91 42 00 80 00 91 41 00 80 00 91 40 00 80 00 91 3F 00 80 00 91 3E 00 80 00 91 3D 00 80 00 91 3C 00 80 48 91 48 00 80 00 91 47 00 80 00 91 46 00 80 00 91 45 00 80 00 91 44 00 80 00 91 43 00 80 00 91 42 00 80 00 91 41 00 80 00 91 40 00 80 00 91 3F 00 80 00 91 3E 00 80 00 91 3D 00 80 00 91 3C 00 80 48 00 FF 2F 00